<svg xmlns="http://www.w3.org/2000/svg" viewBox="0 0 2120.2999999999997 650" overflow="visible"><g transform="translate(40, 400)"><path fill="#000" stroke="#000" d="M163.70 5.60L163.70 5.60Q163.70 7.70 163.85 10.10Q164 12.50 164.15 15.05Q164.30 17.60 164.30 19.70Q164.30 21.80 163.85 23.75Q163.40 25.70 162.20 26.90L162.20 26.90Q157.70 32.60 154.40 28.10L154.40 28.10Q148.40 20 146.15-12.25Q143.90-44.50 144.05-83.95Q144.20-123.40 143.60-162.10Q143-200.80 138.35-226.90Q133.70-253 123.80-253.30L123.80-253.30Q114.20-253.30 92-201.55Q69.80-149.80 48.05-85.75Q26.30-21.70 8.90 38.30L8.90 38.30Q6.50 53 3.80 68.30L3.80 68.30Q3.20 71.90-0.85 71.30Q-4.90 70.70-4.60 67.10L-4.60 67.10Q2.90 11.30 17-62.20L17-62.20Q23.90-97.90 31.70-130.90L31.70-130.90Q32.30-133 34.85-145.30Q37.40-157.60 39.20-163.90L39.20-163.90Q38.60-163.60 37.55-163Q36.50-162.40 35.60-161.95Q34.70-161.50 33.80-160.90L33.80-160.90Q31.70-159.70 29.60-161.65Q27.50-163.60 29-166L29-166Q29.60-166.90 30.35-168.40Q31.10-169.90 31.85-171.25Q32.60-172.60 33.50-173.50L33.50-173.50Q34.70-175 38.60-178.90L38.60-178.90Q44.60-184.60 44.90-184.60L44.90-184.60Q46.40-186.10 47.90-187.30L47.90-187.30Q49.10-187.60 49.10-187.90L49.10-187.90L49.10-187.60Q49.70-188.50 51.50-189.10L51.50-189.10Q53.30-190 55.10-188.50Q56.90-187 56.90-184.90L56.90-184.90Q56.90-183.40 56.30-181.60L56.30-181.60Q54.20-172 48.95-151.90Q43.70-131.80 42.80-127.60L42.80-127.60Q35-94.90 28.10-64.30L28.10-64.30Q24.20-46.30 19.40-21.10L19.40-21.10Q31.40-62.50 44.60-101.80Q57.80-141.10 72.50-179.05Q87.20-217 101-240.85Q114.80-264.70 124.40-266.20L124.40-266.20Q135.50-267.70 143-258.40Q150.50-249.10 153.95-231.85Q157.40-214.60 159.20-191.65Q161-168.70 160.55-143.05Q160.10-117.40 159.80-91.15Q159.50-64.90 158.90-41.20Q158.30-17.50 159.50 1.70L159.50 1.70Q161.30 1.70 162.65 2.60Q164 3.50 163.70 5.60ZM192.50-104.20L192.50-104.20Q193.10-105.10 194.45-105.25Q195.80-105.40 196.85-104.65Q197.90-103.90 197.30-102.70L197.30-102.70Q195.50-97.60 194.75-87.70Q194-77.80 193.70-66.25Q193.40-54.70 193.40-53.50L193.40-53.50Q193.40-51.40 191-51.10Q188.60-50.80 188-52.60L188-52.60Q184.40-64.30 185.45-78.85Q186.50-93.40 192.50-104.20ZM200.90-127.30L200.90-127.30Q201.80-124.90 200.15-123.25Q198.50-121.60 196.10-121.30L196.10-121.30Q194.30-121.30 193.70-122.65Q193.10-124 193.70-125.50Q194.30-127 196.10-127L196.10-127Q196.40-127.60 196.70-127.90L196.70-127.90Q197.30-129.40 198.80-129.10Q200.30-128.80 200.90-127.30ZM282.80-90.40L282.80-90.40Q284-91.30 285.05-89.80Q286.10-88.30 284.90-87.40L284.90-87.40Q260.30-68.50 233.60-56.80L233.60-56.80Q233.30-56.80 232.40-56.50L232.40-56.50Q228.20-54.40 225.65-53.65Q223.10-52.90 219.35-52.30Q215.60-51.70 213.05-53.50Q210.50-55.30 208.70-59.50L208.70-59.50Q205.40-68.50 215.60-87.70L215.60-87.70Q225.20-105.70 234.20-107.20L234.20-107.20Q239-108.10 242-101.80L242-101.80Q242.60-100.30 242-99.40L242-99.40Q242-99.10 241.55-98.65Q241.10-98.20 240.80-97.90L240.80-97.90Q240.20-97.30 239.15-97.30Q238.10-97.30 238.10-98.20L238.10-98.20Q237.80-102.70 229.70-93.40L229.70-93.40Q217.70-79 217.10-67.90L217.10-67.90Q216.80-62.20 220.70-60.40L220.70-60.40Q227.30-57.10 248-68.35Q268.70-79.60 282.80-90.40ZM358.40-85.30L358.40-85.30Q359.90-87.10 361.40-85.75Q362.90-84.40 361.70-82.60L361.70-82.60Q358.70-78.10 354.80-73.15Q350.90-68.20 345.35-62.05Q339.80-55.90 334.40-50.65Q329.00-45.40 322.70-40.90Q316.40-36.40 310.55-33.85Q304.70-31.30 298.85-31.60Q293.00-31.90 288.50-35.20L288.50-35.20Q283.70-39.10 281.00-50.80L281.00-50.80Q277.10-20.80 277.10 6.20L277.10 6.20Q277.10 8.60 274.70 8.60Q272.30 8.60 272.30 6.20L272.30 6.20Q271.70-23.50 274.40-53.50L274.40-53.50Q273.50-52.30 272.00-52.90Q270.50-53.50 269.90-54.70Q269.30-55.90 270.20-57.10L270.20-57.10Q274.40-61.90 275.30-63.10L275.30-63.10Q283.40-135.10 309.80-200.20L309.80-200.20Q310.70-202.30 313.10-201.25Q315.50-200.20 314.90-197.80L314.90-197.80Q304.70-163 297.80-136.30Q290.90-109.60 286.10-83.80L286.10-83.80Q294.50-109.30 303.05-123.70Q311.60-138.10 319.10-129.40L319.10-129.40Q327.20-119.80 283.70-64.90L283.70-64.90Q285.50-64.90 285.50-62.80L285.50-62.80Q286.70-43 293.60-38.50L293.60-38.50Q313.40-25.60 356.30-82.30L356.30-82.30Q357.80-84.40 358.40-85.30ZM310.40-126.40L310.40-126.40Q302.60-127.90 287.30-77.50L287.30-77.50Q321.20-119.50 310.40-126.40ZM503-98.50L503-98.50Q504.50-99.70 505.70-98.05Q506.90-96.40 505.70-94.90L505.70-94.90Q501.80-91 498.50-87.40L498.50-87.40Q497-85.90 495.50-87.10L495.50-87.10Q491.30-83.80 489.20-82.15Q487.10-80.50 482.60-77.05Q478.10-73.60 475.40-71.80Q472.70-70 468.65-67.30Q464.60-64.60 461.90-63.55Q459.20-62.50 456.20-61.60Q453.20-60.70 450.95-61Q448.70-61.30 447.20-62.50L447.20-62.50Q439.70-68.80 440.30-79.90L440.30-79.90Q419-56.80 410.30-58.90L410.30-58.90Q406.70-61.60 409.55-72.10Q412.40-82.60 421.85-94.30Q431.30-106 439.10-105.70L439.10-105.70Q447.80-105.40 447.50-95.80L447.50-95.80Q447.80-96.10 448.10-96.40L448.10-96.40L448.10-96.40Q448.10-96.40 448.40-96.55Q448.70-96.70 448.70-97L448.70-97Q450.50-98.20 451.70-96.40Q452.90-94.60 451.70-93.10L451.70-93.10Q449.30-90.40 447.50-88L447.50-88Q444.80-82.60 447.05-76.90Q449.30-71.20 454.10-69.40L454.10-69.40Q458-67.60 467.30-73.15Q476.60-78.70 488.90-88.15Q501.20-97.60 503-98.50ZM417.80-67.30L417.80-67.30Q423.80-67.30 437.30-83.20L437.30-83.20Q434.90-85 435.80-87.70L435.80-87.70Q433.70-92.80 424.10-83.20L424.10-83.20Q414.50-73.60 415.40-68.80L415.40-68.80Q415.70-67 417.80-67.30ZM582.80-96.70L582.80-96.70Q584.60-98.50 585.80-96.10L585.80-96.10Q585.80-94.90 585.20-94.30L585.20-94.30Q584-93.10 576.35-84.40Q568.70-75.70 561.65-69.70Q554.60-63.70 550.10-63.70L550.10-63.70Q544.40-63.70 541.55-73.90Q538.70-84.10 537.50-95.20Q536.30-106.30 535.10-107.20L535.10-107.20Q531.50-109 518.90-88Q506.30-67 498.50-50.20L498.50-50.20Q498.20-49.90 498.05-49.45Q497.90-49 497.75-48.55Q497.60-48.10 497.60-47.80L497.60-47.80Q497.30-46.90 496.70-46.60L496.70-46.60L496.70-46.30Q496.40-45.40 495.35-45.40Q494.30-45.40 494-46L494-46Q492.20-46.60 492.50-48.40L492.50-48.40Q498.80-105.10 513.20-138.70L513.20-138.70Q513.50-139.60 515.60-138.85Q517.70-138.10 517.70-137.20L517.70-137.20Q514.70-107.20 504.20-70L504.20-70Q526.70-115 532.70-115L532.70-115Q536.90-115 539.30-107.65Q541.70-100.30 542.30-91.75Q542.90-83.20 545.75-76.30Q548.60-69.40 554-70L554-70Q557.30-70.30 561.50-73.90Q565.70-77.50 569.30-81.70Q572.90-85.90 576.80-90.55Q580.70-95.20 582.80-96.70ZM644.60-219.40L644.60-219.40Q646.10-220.30 647.60-219.10Q649.10-217.90 648.50-216.10L648.50-216.10Q638.90-185.50 625.10-154.90L625.10-154.90Q602.30-56.20 614 36.80L614 36.80Q614.30 38.90 611.75 39.35Q609.20 39.80 608.90 37.40L608.90 37.40Q598.40-39.70 607.70-106.90L607.70-106.90Q608.60-114.70 610.40-124.30L610.40-124.30Q604.40-112.90 597.80-101.20L597.80-101.20Q599-100.60 599.60-100L599.60-100Q601.70-98.50 600.80-96.25Q599.90-94 597.50-94.60L597.50-94.60Q596-95.20 594.20-95.20L594.20-95.20Q580.10-71.50 564.50-49.60L564.50-49.60Q563.60-48.40 562.10-48.55Q560.60-48.70 560-50.20L560-50.20Q556.70-59.50 560.30-73.60Q563.90-87.70 573.35-97.30Q582.80-106.90 593.30-103.30L593.30-103.30Q600.20-115.60 604.40-123.40L604.40-123.40Q608.90-131.80 614-142.90L614-142.90Q618.50-163.30 624.80-182.20L624.80-182.20Q625.40-184.30 627.05-190Q628.70-195.70 629.90-199.15Q631.10-202.60 633.05-206.95Q635-211.30 637.85-214.45Q640.70-217.60 644.60-219.40ZM576.20-75.10L576.20-75.10Q581-82.30 588.20-94.60L588.20-94.60Q577.70-91 570.50-77.20L570.50-77.20Q560.60-58 563.60-59.50L563.60-59.50Q566.90-61 576.20-75.10ZM898.40 51.50L898.40 51.50Q904.10 52.10 904.10 54.80L904.10 54.80Q904.10 55.70 902.60 56.60L902.60 56.60Q888.50 63.50 881.60 35.60L881.60 35.60Q870.20-9.70 878.60-115.90L878.60-115.90Q883.10-170.80 890.90-212.80L890.90-212.80Q877.40-194.80 861.80-167.05Q846.20-139.30 833.75-114.70Q821.30-90.10 809.45-67.45Q797.60-44.80 787.85-32.35Q778.10-19.90 771.50-21.40L771.50-21.40Q765.20-22.90 768.50-51.55Q771.80-80.20 778.85-113.95Q785.90-147.70 789.65-176.65Q793.40-205.60 788-207.70L788-207.70Q784.10-208.90 767.60-174.70Q751.10-140.50 730.85-93.85Q710.60-47.20 706.10-38.50L706.10-38.50Q698.60-3.40 689 49.10L689 49.10Q688.70 51.80 686.30 52.70Q683.90 53.60 681.80 52.25Q679.70 50.90 680 48.20L680 48.20Q686.30 0.20 695.90-46L695.90-46Q695.60-46.60 695.90-47.50L695.90-47.50Q696.20-48.40 696.50-49L696.50-49Q718.10-148.90 753.20-227.80L753.20-227.80Q743.30-217.30 731-209.80L731-209.80Q727.40-207.70 725-210.70Q722.60-213.70 725.60-216.70L725.60-216.70Q755.30-245.20 764.30-254.80L764.30-254.80Q767.30-258.40 770.60-254.80L770.60-254.80Q770.60-254.80 770.60-254.50L770.60-254.50Q770.90-254.50 770.90-254.20L770.90-254.20Q771.80-253.30 771.50-252.10L771.50-252.10Q771.50-251.50 771.20-251.20L771.20-251.20Q766.70-236.80 748.85-186.25Q731-135.70 723.20-107.50L723.20-107.50Q722.90-106.90 722.60-105.85Q722.30-104.80 722-103.75Q721.70-102.70 721.40-101.80L721.40-101.80Q783.80-231.70 794.60-226L794.60-226Q802.70-221.80 799.70-191.35Q796.70-160.90 789.35-126.40Q782-91.90 776.90-63.10Q771.80-34.30 775.10-33.10L775.10-33.10Q779.30-31.90 789.80-48.10Q800.30-64.30 813.95-90.25Q827.60-116.20 841.85-143.65Q856.10-171.10 870.95-195.85Q885.80-220.60 895.40-230.50L895.40-230.50Q897.20-232.30 899.60-230.80Q902-229.30 901.70-227.20L901.70-227.20Q895.40-190.30 890.45-126.40Q885.50-62.50 886.55-6.25Q887.60 50 898.40 51.50ZM975.20-103L975.20-103Q976.70-105.10 978.20-103L978.20-103Q979.10-102.10 978.20-101.20L978.20-101.20Q961.40-76.60 930.80-73.90L930.80-73.90Q923.90-54.10 910.40-54.10L910.40-54.10Q906.20-54.40 906.50-63.55Q906.80-72.70 910.70-82L910.70-82Q905.90-90.70 911.30-101.20L911.30-101.20Q912.80-104.80 915.80-107.20Q918.80-109.60 921.80-110.05Q924.80-110.50 927.65-109.45Q930.50-108.40 932.45-105.55Q934.40-102.70 934.70-98.20L934.70-98.20Q935.30-89.20 932-77.80L932-77.80Q956.90-80.20 975.20-103ZM910.10-58.60L910.10-58.60Q913.40-57.70 916.70-62.20Q920-66.70 922.70-73.90L922.70-73.90Q917-74.80 913.40-78.40L913.40-78.40Q910.70-72.70 909.65-66.70Q908.60-60.70 910.10-58.60ZM923.90-78.40L923.90-78.40Q925.40-84.40 926-89.80L926-89.80Q920.90-89.50 916.40-83.50L916.40-83.50Q919.70-79.60 923.90-78.40ZM914-87.70L914-87.70Q919.40-95.80 926-95.20L926-95.20Q925.40-105.40 919.10-102.40L919.10-102.40Q914.60-100.30 913.40-96.10Q912.20-91.90 914-87.70ZM1040.30-95.20L1044.20-100.90Q1045.40-102.40 1047.05-101.50Q1048.70-100.60 1047.80-98.80L1047.80-98.80Q1045.40-94.30 1038.05-79.45Q1030.70-64.60 1026.50-57.10Q1022.30-49.60 1015.40-37.75Q1008.50-25.90 1001.60-16.90Q994.70-7.90 987.50-0.70L987.50-0.70Q980 6.80 975.50 5.90Q971 5 967.10-4.90L967.10-4.90Q962-18.40 961.10-36.40Q960.20-54.40 961.55-67.30Q962.90-80.20 965.90-99.40L965.90-99.40Q977.30-166.90 1000.70-209.20L1000.70-209.20Q1001.60-210.70 1003.55-209.95Q1005.50-209.20 1004.90-207.40L1004.90-207.40Q993.50-177.40 983.60-132.85Q973.70-88.30 971.45-50.50Q969.20-12.70 983-5.80L983-5.80Q986.60-4.30 994.85-14.65Q1003.10-25 1012.85-41.65Q1022.60-58.30 1027.55-67.60Q1032.50-76.90 1036.10-83.50L1036.10-83.50Q1036.40-90.70 1040.60-92.20L1040.60-92.20Q1039.40-93.70 1040.30-95.20L1040.30-95.20ZM1118.30-95.20L1122.20-100.90Q1123.40-102.40 1125.05-101.50Q1126.70-100.60 1125.80-98.80L1125.80-98.80Q1123.40-94.30 1116.05-79.45Q1108.70-64.60 1104.50-57.10Q1100.30-49.60 1093.40-37.75Q1086.50-25.90 1079.60-16.90Q1072.70-7.90 1065.50-0.70L1065.50-0.70Q1058 6.80 1053.50 5.90Q1049 5 1045.10-4.90L1045.10-4.90Q1040-18.40 1039.10-36.40Q1038.20-54.40 1039.55-67.30Q1040.90-80.20 1043.90-99.40L1043.90-99.40Q1055.30-166.90 1078.70-209.20L1078.70-209.20Q1079.60-210.70 1081.55-209.95Q1083.50-209.20 1082.90-207.40L1082.90-207.40Q1071.50-177.40 1061.60-132.85Q1051.70-88.30 1049.45-50.50Q1047.20-12.70 1061-5.80L1061-5.80Q1064.60-4.30 1072.85-14.65Q1081.10-25 1090.85-41.65Q1100.60-58.30 1105.55-67.60Q1110.50-76.90 1114.10-83.50L1114.10-83.50Q1114.40-90.70 1118.60-92.20L1118.60-92.20Q1117.40-93.70 1118.30-95.20L1118.30-95.20ZM1215.20-82L1215.20-82Q1216.10-82.30 1216.70-81.55Q1217.30-80.80 1216.70-79.90L1216.70-79.90Q1216.70-78.40 1215.50-77.80L1215.50-77.80Q1213.70-75.40 1210.70-74.20L1210.70-74.20Q1208.90-73.30 1208.60-75.40L1208.60-75.40Q1187.60-64.90 1166.60-50.50L1166.60-50.50Q1160.00-8.80 1144.40 26.60L1144.40 26.60Q1142.30 31.10 1140.50 35.15Q1138.70 39.20 1135.10 46.10Q1131.50 53 1127.90 58.25Q1124.30 63.50 1119.80 69.50Q1115.30 75.50 1110.65 79.10Q1106.00 82.70 1100.90 84.95Q1095.80 87.20 1090.40 86Q1085.00 84.80 1079.90 80.30L1079.90 80.30Q1073.60 75.20 1071.50 68.30Q1069.40 61.40 1069.85 55.10Q1070.30 48.80 1074.20 40.25Q1078.10 31.70 1081.40 26.30Q1084.70 20.90 1091.45 12.50Q1098.20 4.10 1101.05 0.95Q1103.90-2.20 1109.90-8.50L1109.90-8.50Q1132.40-33.10 1162.40-53.50L1162.40-53.50Q1166.60-83.20 1166.30-119.80L1166.30-119.80Q1156.70-100.30 1143.65-82.60Q1130.60-64.90 1121.90-64.90L1121.90-64.90Q1112.60-64.90 1111.55-73.75Q1110.50-82.60 1115.45-92.20Q1120.40-101.80 1126.40-103.90L1126.40-103.90Q1127.60-104.20 1128.65-103.30Q1129.70-102.40 1129.70-101.20L1129.70-101.20Q1129.70-99.40 1126.70-92.20L1126.70-92.20Q1119.80-73.90 1124.30-71.80L1124.30-71.80Q1125.80-71.20 1129.10-71.80L1129.10-71.80Q1132.40-72.70 1140.20-83.35Q1148.00-94 1155.50-107.05Q1163.00-120.10 1166.90-129.10L1166.90-129.10Q1167.50-130.60 1169.00-130.15Q1170.50-129.70 1170.20-128.20L1170.20-128.20Q1171.10-127.60 1171.10-126.70L1171.10-126.70Q1172.30-91 1167.80-57.40L1167.80-57.40Q1173.80-60.70 1181.15-64.90Q1188.50-69.10 1191.05-70.60Q1193.60-72.10 1199.30-74.95Q1205.00-77.80 1214.00-82L1214.00-82Q1214.60-82.30 1215.20-82ZM1155.20-20.20L1155.20-20.20Q1158.80-32.80 1161.20-46.60L1161.20-46.60Q1114.10-12.40 1088.30 23.60Q1062.50 59.60 1085.90 71.60L1085.90 71.60Q1091.30 74.90 1097.00 73.55Q1102.70 72.20 1107.80 69.05Q1112.90 65.90 1118.00 59.45Q1123.10 53 1127.30 46.25Q1131.50 39.50 1135.55 31.10Q1139.60 22.70 1142.75 15.35Q1145.90 8 1148.60 0.50Q1151.30-7 1152.80-11.80Q1154.30-16.60 1155.20-20.20ZM1472.30 51.50L1472.30 51.50Q1478.00 52.10 1478.00 54.80L1478.00 54.80Q1478.00 55.70 1476.50 56.60L1476.50 56.60Q1462.40 63.50 1455.50 35.60L1455.50 35.60Q1444.10-9.70 1452.50-115.90L1452.50-115.90Q1457.00-170.80 1464.80-212.80L1464.80-212.80Q1451.30-194.80 1435.70-167.05Q1420.10-139.30 1407.65-114.70Q1395.20-90.10 1383.35-67.45Q1371.50-44.80 1361.75-32.35Q1352.00-19.90 1345.40-21.40L1345.40-21.40Q1339.10-22.90 1342.40-51.55Q1345.70-80.20 1352.75-113.95Q1359.80-147.70 1363.55-176.65Q1367.30-205.60 1361.90-207.70L1361.90-207.70Q1358.00-208.90 1341.50-174.70Q1325.00-140.50 1304.75-93.85Q1284.50-47.20 1280.00-38.50L1280.00-38.50Q1272.50-3.40 1262.90 49.10L1262.90 49.10Q1262.60 51.80 1260.20 52.70Q1257.80 53.60 1255.70 52.25Q1253.60 50.90 1253.90 48.20L1253.90 48.20Q1260.20 0.20 1269.80-46L1269.80-46Q1269.50-46.60 1269.80-47.50L1269.80-47.50Q1270.10-48.40 1270.40-49L1270.40-49Q1292.00-148.90 1327.10-227.80L1327.10-227.80Q1317.20-217.30 1304.90-209.80L1304.90-209.80Q1301.30-207.70 1298.90-210.70Q1296.50-213.70 1299.50-216.70L1299.50-216.70Q1329.20-245.20 1338.20-254.80L1338.20-254.80Q1341.20-258.40 1344.50-254.80L1344.50-254.80Q1344.50-254.80 1344.50-254.50L1344.50-254.50Q1344.80-254.50 1344.80-254.20L1344.80-254.20Q1345.70-253.30 1345.40-252.10L1345.40-252.10Q1345.40-251.50 1345.10-251.20L1345.10-251.20Q1340.60-236.80 1322.75-186.25Q1304.90-135.70 1297.10-107.50L1297.10-107.50Q1296.80-106.90 1296.50-105.85Q1296.20-104.80 1295.90-103.75Q1295.60-102.70 1295.30-101.80L1295.30-101.80Q1357.70-231.70 1368.50-226L1368.50-226Q1376.60-221.80 1373.60-191.35Q1370.60-160.90 1363.25-126.40Q1355.90-91.90 1350.80-63.10Q1345.70-34.30 1349.00-33.10L1349.00-33.10Q1353.20-31.90 1363.70-48.10Q1374.20-64.30 1387.85-90.25Q1401.50-116.20 1415.75-143.65Q1430.00-171.10 1444.85-195.85Q1459.70-220.60 1469.30-230.50L1469.30-230.50Q1471.10-232.30 1473.50-230.80Q1475.90-229.30 1475.60-227.20L1475.60-227.20Q1469.30-190.30 1464.35-126.40Q1459.40-62.50 1460.45-6.25Q1461.50 50 1472.30 51.50ZM1574.00-98.50L1574.00-98.50Q1575.50-99.70 1576.70-98.05Q1577.90-96.40 1576.70-94.90L1576.70-94.90Q1572.80-91 1569.50-87.40L1569.50-87.40Q1568.00-85.90 1566.50-87.10L1566.50-87.10Q1562.30-83.80 1560.20-82.15Q1558.10-80.50 1553.60-77.05Q1549.10-73.60 1546.40-71.80Q1543.70-70 1539.65-67.30Q1535.60-64.60 1532.90-63.55Q1530.20-62.50 1527.20-61.60Q1524.20-60.70 1521.95-61Q1519.70-61.30 1518.20-62.50L1518.20-62.50Q1510.70-68.80 1511.30-79.90L1511.30-79.90Q1490.00-56.80 1481.30-58.90L1481.30-58.90Q1477.70-61.60 1480.55-72.10Q1483.40-82.60 1492.85-94.30Q1502.30-106 1510.10-105.70L1510.10-105.70Q1518.80-105.40 1518.50-95.80L1518.50-95.80Q1518.80-96.10 1519.10-96.40L1519.10-96.40L1519.10-96.40Q1519.10-96.40 1519.40-96.55Q1519.70-96.70 1519.70-97L1519.70-97Q1521.50-98.20 1522.70-96.40Q1523.90-94.60 1522.70-93.10L1522.70-93.10Q1520.30-90.40 1518.50-88L1518.50-88Q1515.80-82.60 1518.05-76.90Q1520.30-71.20 1525.10-69.40L1525.10-69.40Q1529.00-67.60 1538.30-73.15Q1547.60-78.70 1559.90-88.15Q1572.20-97.60 1574.00-98.50ZM1488.80-67.30L1488.80-67.30Q1494.80-67.30 1508.30-83.20L1508.30-83.20Q1505.90-85 1506.80-87.70L1506.80-87.70Q1504.70-92.80 1495.10-83.20L1495.10-83.20Q1485.50-73.60 1486.40-68.80L1486.40-68.80Q1486.70-67 1488.80-67.30ZM1646.90-95.20L1650.80-100.90Q1652.00-102.40 1653.65-101.50Q1655.30-100.60 1654.40-98.80L1654.40-98.80Q1652.00-94.30 1644.65-79.45Q1637.30-64.60 1633.10-57.10Q1628.90-49.60 1622.00-37.75Q1615.10-25.90 1608.20-16.90Q1601.30-7.90 1594.10-0.70L1594.10-0.70Q1586.60 6.80 1582.10 5.90Q1577.60 5 1573.70-4.90L1573.70-4.90Q1568.60-18.40 1567.70-36.40Q1566.80-54.40 1568.15-67.30Q1569.50-80.20 1572.50-99.40L1572.50-99.40Q1583.90-166.90 1607.30-209.20L1607.30-209.20Q1608.20-210.70 1610.15-209.95Q1612.10-209.20 1611.50-207.40L1611.50-207.40Q1600.10-177.40 1590.20-132.85Q1580.30-88.30 1578.05-50.50Q1575.80-12.70 1589.60-5.80L1589.60-5.80Q1593.20-4.30 1601.45-14.65Q1609.70-25 1619.45-41.65Q1629.20-58.30 1634.15-67.60Q1639.10-76.90 1642.70-83.50L1642.70-83.50Q1643.00-90.70 1647.20-92.20L1647.20-92.20Q1646.00-93.70 1646.90-95.20L1646.90-95.20ZM1752.80-96.70L1752.80-96.70Q1753.70-98.20 1755.20-97L1755.20-97Q1755.80-96.10 1755.50-95.20L1755.50-95.20Q1746.50-81.70 1732.10-69.10Q1717.70-56.50 1709.30-58.60L1709.30-58.60Q1704.20-59.50 1702.55-67Q1700.90-74.50 1701.65-80.95Q1702.40-87.40 1700.30-90.10L1700.30-90.10Q1700.00-90.40 1699.10-89.20Q1698.20-88 1697.15-85.60Q1696.10-83.20 1694.75-80.35Q1693.40-77.50 1691.75-74.65Q1690.10-71.80 1688.60-69.40Q1687.10-67 1685.45-65.50Q1683.80-64 1682.30-64.30L1682.30-64.30Q1678.40-64.30 1677.35-71.95Q1676.30-79.60 1677.20-88.60Q1678.10-97.60 1678.10-105.10Q1678.10-112.60 1676.30-112.30L1676.30-112.30Q1671.50-112.30 1662.95-90.10Q1654.40-67.90 1649.30-46.30L1649.30-46.30Q1648.10-41.20 1647.65-39.25Q1647.20-37.30 1646.15-34.45Q1645.10-31.60 1644.05-30.70Q1643.00-29.80 1641.50-29.80L1641.50-29.80Q1634.90-31 1640.30-70.15Q1645.70-109.30 1655.30-136.90L1655.30-136.90Q1655.90-138.10 1658.15-138.55Q1660.40-139 1662.50-137.80Q1664.60-136.60 1664.30-133.60L1664.30-133.60Q1663.40-126.70 1661.60-123.70Q1659.80-120.70 1659.50-119.80L1659.50-119.80Q1658.90-116.80 1655.90-103.45Q1652.90-90.10 1650.35-77.05Q1647.80-64 1647.20-55L1647.20-55Q1647.80-56.50 1649.45-61.30Q1651.10-66.10 1652.45-69.85Q1653.80-73.60 1655.90-79.15Q1658.00-84.70 1659.80-89.05Q1661.60-93.40 1663.70-98.35Q1665.80-103.30 1667.75-106.75Q1669.70-110.20 1671.50-113.05Q1673.30-115.90 1675.10-116.95Q1676.90-118 1678.10-117.10L1678.10-117.10Q1682.30-114.70 1683.05-102.70Q1683.80-90.70 1682.75-82Q1681.70-73.30 1683.50-71.80L1683.50-71.80Q1684.40-72.10 1688.15-79.15Q1691.90-86.20 1696.25-92.95Q1700.60-99.70 1703.30-99.40L1703.30-99.40Q1705.10-99.10 1706.00-96.25Q1706.90-93.40 1707.05-89.35Q1707.20-85.30 1707.50-80.65Q1707.80-76 1707.95-71.95Q1708.10-67.90 1709.15-65.35Q1710.20-62.80 1712.00-63.10L1712.00-63.10Q1716.20-63.40 1722.80-67.60Q1729.40-71.80 1735.25-77.35Q1741.10-82.90 1746.05-88.15Q1751.00-93.40 1752.80-96.70ZM1853.30 48.20L1853.30 48.20Q1856 49.40 1855.40 51.95Q1854.80 54.50 1851.80 53.90L1851.80 53.90Q1818.50 48.20 1788.35 52.55Q1758.20 56.90 1728.50 73.70L1728.50 73.70Q1727.30 74.30 1726.40 73.25Q1725.50 72.20 1726.70 71.30L1726.70 71.30Q1735.70 64.10 1746.50 58.40L1746.50 58.40Q1750.10-19.30 1776.80-74.80L1776.80-74.80Q1763.30-65.20 1745.30-60.40L1745.30-60.40Q1737.50-58.30 1734.35-60.85Q1731.20-63.40 1732.25-68.50Q1733.30-73.60 1736.90-79.60L1736.90-79.60Q1744.40-92.80 1755.20-102.70Q1766-112.60 1778.60-114.70L1778.60-114.70Q1787.60-116.20 1791.65-110.95Q1795.70-105.70 1794.20-98.20L1794.20-98.20Q1795.70-97.60 1796.30-96.25Q1796.90-94.90 1796-93.40L1796-93.40Q1793.60-90.10 1790.60-86.80L1790.60-86.80Q1788.20-79.90 1779.35-56.50Q1770.50-33.10 1766.90-19.90L1766.90-19.90Q1759.40 7.70 1752.50 55.40L1752.50 55.40Q1776.50 44 1802.60 41.75Q1828.70 39.50 1853.30 48.20ZM1738.10-66.10L1738.10-66.10Q1742.30-62.80 1757.75-71.95Q1773.20-81.10 1785.20-91.60L1785.20-91.60Q1785.50-92.80 1785.50-92.80L1785.50-92.80Q1785.20-108.40 1766-96.70L1766-96.70Q1751-87.70 1741.10-74.20L1741.10-74.20Q1736.30-67.60 1738.10-66.10ZM1907.60-85.90L1907.60-85.90Q1907.90-85.90 1907.90-85.60L1907.90-85.60Q1907.90-85.30 1907.60-84.70L1907.60-84.70Q1904.60-78.70 1903.70-77.20L1903.70-77.20Q1903.10-76 1901.90-76.60Q1900.70-77.20 1901.00-78.40L1901.00-78.40Q1891.70-70.90 1880.60-64.75Q1869.50-58.60 1863.50-59.50L1863.50-59.50Q1859.00-60.40 1856.30-64.75Q1853.60-69.10 1853.00-74.05Q1852.40-79 1851.80-83.20Q1851.20-87.40 1850.00-87.70L1850.00-87.70Q1847.30-88 1841.90-82.60Q1836.50-77.20 1831.40-70.75Q1826.30-64.30 1820.30-60.10Q1814.30-55.90 1810.70-58.30L1810.70-58.30Q1807.10-61.30 1807.10-66.85Q1807.10-72.40 1809.95-79.90Q1812.80-87.40 1815.80-92.95Q1818.80-98.50 1821.20-101.80L1821.20-101.80Q1822.10-103.30 1823.75-102.55Q1825.40-101.80 1825.10-100L1825.10-100Q1824.80-98.20 1823.30-93.25Q1821.80-88.30 1820.30-83.50Q1818.80-78.70 1817.45-73.30Q1816.10-67.90 1815.95-65.20Q1815.80-62.50 1817.00-61.30L1817.00-61.30Q1818.20-61 1821.35-64.30Q1824.50-67.60 1828.40-72.55Q1832.30-77.50 1836.05-82.45Q1839.80-87.40 1843.25-90.85Q1846.70-94.30 1848.50-94.60L1848.50-94.60Q1852.10-94.60 1853.45-87.25Q1854.80-79.90 1857.05-71.95Q1859.30-64 1865.30-63.10L1865.30-63.10Q1869.80-62.80 1878.05-66.70Q1886.30-70.60 1893.80-76.15Q1901.30-81.70 1905.50-86.50L1905.50-86.50Q1906.70-88 1907.60-85.90ZM1906.70-104.20L1906.70-104.20Q1907.30-105.10 1908.65-105.25Q1910.00-105.40 1911.05-104.65Q1912.10-103.90 1911.50-102.70L1911.50-102.70Q1909.70-97.60 1908.95-87.70Q1908.20-77.80 1907.90-66.25Q1907.60-54.70 1907.60-53.50L1907.60-53.50Q1907.60-51.40 1905.20-51.10Q1902.80-50.80 1902.20-52.60L1902.20-52.60Q1898.60-64.30 1899.65-78.85Q1900.70-93.40 1906.70-104.20ZM1915.10-127.30L1915.10-127.30Q1916.00-124.90 1914.35-123.25Q1912.70-121.60 1910.30-121.30L1910.30-121.30Q1908.50-121.30 1907.90-122.65Q1907.30-124 1907.90-125.50Q1908.50-127 1910.30-127L1910.30-127Q1910.60-127.60 1910.90-127.90L1910.90-127.90Q1911.50-129.40 1913.00-129.10Q1914.50-128.80 1915.10-127.30ZM2018.30-98.80L2018.30-98.80Q2019.20-99.10 2020.10-98.50Q2021.00-97.90 2021.00-97Q2021.00-96.10 2020.10-95.50L2020.10-95.50Q1991.00-80.50 1964.90-60.70L1964.90-60.70Q1968.20-50.50 1969.10-46.30L1969.10-46.30Q1970.60-40 1970.00-34.90Q1969.40-29.80 1965.20-24.40L1965.20-24.40Q1958.30-15.70 1943.45-7Q1928.60 1.70 1920.20-1.90L1920.20-1.90Q1907.90-7.60 1919.45-22.75Q1931.00-37.90 1956.80-57.40L1956.80-57.40Q1952.00-71.20 1952.60-78.40L1952.60-78.40Q1953.50-88.30 1958.15-96.70Q1962.80-105.10 1971.20-109L1971.20-109Q1971.80-109.30 1972.55-109.15Q1973.30-109 1973.75-108.55Q1974.20-108.10 1974.50-107.35Q1974.80-106.60 1974.20-105.70L1974.20-105.70Q1973.30-103.90 1970.15-98.80Q1967.00-93.70 1965.35-90.10Q1963.70-86.50 1962.80-82.60L1962.80-82.60Q1961.00-73.90 1964.30-63.10L1964.30-63.10Q1980.20-74.80 1996.55-85.30Q2012.90-95.80 2018.30-98.80ZM1960.40-36.10L1960.40-36.10Q1961.30-43.90 1957.70-55L1957.70-55Q1956.80-54.70 1955.30-53.50Q1953.80-52.30 1952.90-51.40L1952.90-51.40Q1943.30-43.60 1933.70-32.20Q1924.10-20.80 1926.80-15.10L1926.80-15.10Q1928.30-12.10 1932.05-11.80Q1935.80-11.50 1940.45-13.75Q1945.10-16 1949.45-19.30Q1953.80-22.60 1956.95-27.25Q1960.10-31.90 1960.40-36.10ZM2186.30-184.60L2186.30-184.60Q2188.10-181.90 2185.40-180.10L2185.40-180.10Q2185.10-179.80 2184.50-179.50Q2183.90-179.20 2183.60-179.20L2183.60-179.20Q2181.20-177.70 2179.40-180.40L2179.40-180.40Q2179.10-181 2178.80-181.30L2178.80-181.30Q2178.80-181.60 2178.50-182.20L2178.50-182.20Q2174.60-181.30 2169.80-184.60L2169.80-184.60Q2156.00-187.60 2142.20-189.10L2142.20-189.10Q2124.80-190.90 2103.50-190.60L2103.50-190.60Q2075.00-190.30 2030.30-185.50L2030.30-185.50Q2029.70-185.50 2029.10-185.35Q2028.50-185.20 2028.20-185.20L2028.20-185.20Q2027.90-181.90 2027.60-175L2027.60-175Q2021.30-61.90 2023.40-4.30L2023.40-4.30Q2024.30-4.60 2025.20-4.15Q2026.10-3.70 2026.10-2.50L2026.10-2.50Q2025.80 4.70 2024.60 18.80L2024.60 18.80Q2024.30 21.50 2021.75 21.50Q2019.20 21.50 2018.90 18.80L2018.90 18.80Q2008.10-102.10 2018.30-184L2018.30-184Q1973.60-178.90 1956.50-177.70L1956.50-177.70Q1954.10-177.40 1946.15-176.65Q1938.20-175.90 1934.60-175.75Q1931.00-175.60 1924.70-175.75Q1918.40-175.90 1913.60-177.40Q1908.80-178.90 1904.30-181.90L1904.30-181.90Q1902.80-182.50 1903.70-184Q1904.60-185.50 1906.10-184.60L1906.10-184.60Q1914.20-180.10 1927.70-179.35Q1941.20-178.60 1952.00-180.10Q1962.80-181.60 1979.00-184.45Q1995.20-187.30 2000.60-187.90L2000.60-187.90Q2018.30-190.30 2018.90-190.30L2018.90-190.30Q2021.60-208.90 2024.90-225.40L2024.90-225.40Q2025.20-227.50 2027.75-227.20Q2030.30-226.90 2030.30-224.50L2030.30-224.50Q2029.40-210.10 2028.50-191.50L2028.50-191.50Q2058.80-195.10 2079.20-196.30L2079.20-196.30Q2120.30-198.70 2152.70-194.20L2152.70-194.20Q2154.20-193.90 2160.65-193.45Q2167.10-193 2171.15-192.40Q2175.20-191.80 2179.85-189.70Q2184.50-187.60 2186.30-184.60Z"/></g></svg>